# xmcd
#
# Track frame offsets:
#	150
#	8222
#	36981
#	50029
#	62304
#	81793
#	98313
#	117535
#	129833
#	154134
#	187054
#	208979
#	225318
#	240953
#	259086
#	268655
#	285305
#	299426
#	321286
#
# Disc length: 4544 seconds
#
# Revision: 0
# Processed by: cddbd v1.5.2PL0 Copyright (c) Steve Scherf et al.
# Submitted via: EasyCDDAExtractor 11.0.2.1
#
DISCID=0711be13
DTITLE=Various Artist - The Best Film...Ever ! cd3
DYEAR=2008
DGENRE=
TTITLE0=2001 ODYSEJA KOSMICZNA - Richard Strauss - Also Sprach Zarathustra 
TTITLE1=PLUTON - Samuel Barber - Adagio For Strings
TTITLE2=DOBRZY, BRZYDCY I ŹLI - Ennio Morricone - Main Theme
TTITLE3=KILL BILL - Nancy Sinatra - Bang Bang (My Baby Shot Me Down)
TTITLE4=DRACULA - Annie Lenox - Love Song For A Vampire
TTITLE5=ANGEL-A - Anja Garbarek - Can I Keep Him?
TTITLE6=GLADIATOR - Lisa Gerrad - Now We Are Free
TTITLE7=ŚNIADANIE U TIFFANY'EGO - Henry Mancini and His Orchestra - Moon River
TTITLE8=CZAS APOKALIPSY - Richard Wagner - The Ride Of The Valkyries
TTITLE9=LISBON STORY - Madredeus - Ainda
TTITLE10=HARRY POTTER I KAMIEŃ FILOZOFICZNY - John Williams - Hedwig's Theme
TTITLE11=BEN-HUR - Miklos Rozsa - Parade Of The Charioteers
TTITLE12=MARZYCIEL - Jan A.P. Kaczmarek - Impossible Opening
TTITLE13=LISTA SCHINDLERA - John Williams - Schindler's List (Orchestral Versi
TTITLE13=on)
TTITLE14=INDIANA JONES POSZUKIWACZE ZAGINIONEJ ARKI - John Williams - The Raid
TTITLE14=ers March
TTITLE15=UWIERZ W DUCHA - Alex North - Unchained Melody
TTITLE16=BATMAN - Danny Elfman - The Batman Theme
TTITLE17=SIEDMIU WSPANIAŁYCH - Elmer Bernstein - Main Theme
TTITLE18=PRZEMINĘŁO Z WIATREM - Max Steiner - Tara's Theme
EXTD=
EXTT0=
EXTT1=
EXTT2=
EXTT3=
EXTT4=
EXTT5=
EXTT6=
EXTT7=
EXTT8=
EXTT9=
EXTT10=
EXTT11=
EXTT12=
EXTT13=
EXTT14=
EXTT15=
EXTT16=
EXTT17=
EXTT18=
PLAYORDER=
